<svg width="20" height="22" viewBox="0 0 20 22" fill="none" xmlns="http://www.w3.org/2000/svg">
<path d="M19.2803 13.8445L17.25 11.8143V9.12476C17.2477 7.26613 16.5563 5.47439 15.3095 4.09599C14.0627 2.71759 12.3491 1.85046 10.5 1.66226V0.124756H9V1.66226C7.15093 1.85046 5.43732 2.71759 4.19053 4.09599C2.94373 5.47439 2.25233 7.26613 2.25 9.12476V11.8143L0.21975 13.8445C0.079088 13.9851 4.24781e-05 14.1759 0 14.3748V16.6248C0 16.8237 0.0790176 17.0144 0.21967 17.1551C0.360322 17.2957 0.551088 17.3748 0.75 17.3748H6V17.9575C5.98369 18.909 6.31905 19.833 6.94184 20.5525C7.56462 21.2721 8.43102 21.7365 9.375 21.8568C9.89638 21.9085 10.4228 21.8505 10.9204 21.6865C11.4181 21.5225 11.8759 21.2562 12.2644 20.9047C12.6529 20.5532 12.9636 20.1243 13.1764 19.6455C13.3892 19.1667 13.4994 18.6487 13.5 18.1248V17.3748H18.75C18.9489 17.3748 19.1397 17.2957 19.2803 17.1551C19.421 17.0144 19.5 16.8237 19.5 16.6248V14.3748C19.5 14.1759 19.4209 13.9851 19.2803 13.8445ZM12 18.1248C12 18.7215 11.7629 19.2938 11.341 19.7157C10.919 20.1377 10.3467 20.3748 9.75 20.3748C9.15326 20.3748 8.58097 20.1377 8.15901 19.7157C7.73705 19.2938 7.5 18.7215 7.5 18.1248V17.3748H12V18.1248ZM18 15.8748H1.5V14.6853L3.53025 12.655C3.67091 12.5144 3.74996 12.3237 3.75 12.1248V9.12476C3.75 7.53346 4.38214 6.00733 5.50736 4.88212C6.63258 3.7569 8.1587 3.12476 9.75 3.12476C11.3413 3.12476 12.8674 3.7569 13.9926 4.88212C15.1179 6.00733 15.75 7.53346 15.75 9.12476V12.1248C15.75 12.3237 15.8291 12.5144 15.9697 12.655L18 14.6853V15.8748Z" fill="black"/>
</svg>
